<svg width="60" height="67" viewBox="0 0 60 67" fill="none" xmlns="http://www.w3.org/2000/svg">
<path d="M29.8829 0.91868C29.6879 0.938486 29.4965 0.984436 29.3138 1.05527C22.3345 3.85012 14.955 6.61964 2.38621 7.01887C1.8186 7.03667 1.28021 7.27472 0.88508 7.68259C0.489948 8.09046 0.269105 8.63609 0.269327 9.20397C0.263223 11.6348 0.269272 25.3352 0.269327 27.5728C0.269632 39.983 4.06862 48.8558 9.69286 54.978C15.3171 61.1002 22.6275 64.4425 29.5414 66.3817C29.9285 66.4905 30.3381 66.4905 30.7251 66.3817C37.6391 64.4425 44.9494 61.1002 50.5737 54.978C56.1979 48.8558 59.9969 39.983 59.9972 27.5728C59.9973 25.3352 60.0033 11.6348 59.9972 9.20397C59.9974 8.63609 59.7766 8.09046 59.3815 7.68259C58.9863 7.27472 58.4479 7.03667 57.8803 7.01887C45.3115 6.61964 37.932 3.85012 30.9527 1.05527C30.6131 0.921082 30.2453 0.874114 29.8829 0.91868ZM30.1333 5.44827C36.5927 8.01285 44.233 10.5599 55.6269 11.207C55.6301 15.2787 55.6269 25.5702 55.6269 27.5728C55.6266 39.1111 52.2427 46.7086 47.3642 52.0189C42.6367 57.1651 36.3649 60.144 30.1333 61.9658C23.9017 60.144 17.6299 57.1651 12.9023 52.0189C8.02383 46.7086 4.63994 39.1111 4.63966 27.5728C4.63961 25.5702 4.63645 15.2787 4.63966 11.207C16.0335 10.5599 23.6738 8.01285 30.1333 5.44827ZM43.8588 21.2905C43.2928 21.3249 42.7622 21.5779 42.3793 21.9961L25.1028 40.5925L17.9555 32.2617C17.7691 32.0421 17.5412 31.8614 17.2848 31.7302C17.0284 31.5989 16.7486 31.5195 16.4615 31.4966C16.1743 31.4737 15.8855 31.5078 15.6115 31.5968C15.3376 31.6859 15.0839 31.8282 14.8651 32.0155C14.6463 32.2028 14.4666 32.4315 14.3364 32.6885C14.2062 32.9454 14.1281 33.2256 14.1064 33.5128C14.0848 33.8001 14.1201 34.0888 14.2104 34.3623C14.3006 34.6359 14.444 34.8889 14.6322 35.1069L23.3729 45.3043C23.573 45.5373 23.82 45.7256 24.0978 45.8568C24.3756 45.988 24.678 46.0592 24.9851 46.0656C25.2923 46.0721 25.5973 46.0137 25.8804 45.8943C26.1634 45.775 26.4182 45.5972 26.6279 45.3727L45.566 24.9782C45.8677 24.6607 46.0671 24.2599 46.1383 23.8277C46.2095 23.3956 46.1491 22.9519 45.9651 22.5545C45.7811 22.157 45.4819 21.824 45.1063 21.5987C44.7308 21.3733 44.2961 21.2661 43.8588 21.2908V21.2905Z" fill="#FA646A"/>
</svg>
