<svg width="64" height="62" viewBox="0 0 64 62" fill="none" xmlns="http://www.w3.org/2000/svg">
<path d="M60.211 15.1893H59.771V10.7442C59.771 10.0199 59.4833 9.32536 58.9712 8.81323C58.4591 8.3011 57.7645 8.0134 57.0402 8.0134H51.9124V3.0145C51.9124 2.69493 51.8368 2.37989 51.6918 2.09511C51.5468 1.81034 51.3364 1.56393 51.078 1.37602C50.8181 1.1889 50.517 1.06709 50.2001 1.02088C49.8832 0.974671 49.5599 1.00542 49.2574 1.11052L29.0039 8.0134H9.34213C7.16395 8.0154 5.07555 8.88157 3.53534 10.4218C1.99513 11.962 1.12896 14.0504 1.12695 16.2286V22.646C1.12695 22.8963 1.12695 23.1466 1.12695 23.4045V53.0641C1.12896 55.2423 1.99513 57.3307 3.53534 58.8709C5.07555 60.4111 7.16395 61.2773 9.34213 61.2793H60.211C60.9352 61.2793 61.6298 60.9916 62.142 60.4795C62.6541 59.9673 62.9418 59.2727 62.9418 58.5485V17.9126C62.9398 17.1896 62.6512 16.497 62.1393 15.9865C61.6274 15.476 60.9339 15.1893 60.211 15.1893ZM57.0402 10.5925C57.0805 10.5925 57.119 10.6085 57.1475 10.6369C57.1759 10.6654 57.1919 10.704 57.1919 10.7442V15.1893H51.9124V10.5925H57.0402ZM49.3409 3.8034V15.1818H15.9643L49.3409 3.8034ZM9.34213 10.6304H21.479L6.45961 15.6976C5.4339 16.0858 4.4954 16.6736 3.69846 17.4271V16.2134C3.70448 14.7206 4.30174 13.2909 5.35948 12.2374C6.41722 11.184 7.84927 10.5925 9.34213 10.5925V10.6304ZM60.3627 58.5485C60.3627 58.5887 60.3467 58.6273 60.3183 58.6558C60.2898 58.6842 60.2512 58.7002 60.211 58.7002H9.34213C7.84796 58.6982 6.41557 58.1037 5.35904 57.0472C4.3025 55.9907 3.70806 54.5583 3.70605 53.0641V23.4045C3.70806 21.9104 4.3025 20.478 5.35904 19.4214C6.41557 18.3649 7.84796 17.7705 9.34213 17.7684H60.211C60.2499 17.7684 60.2874 17.7833 60.3157 17.8102C60.3439 17.837 60.3608 17.8737 60.3627 17.9126V58.5485Z" fill="#FA646A" stroke="#FA646A" stroke-width="0.5"/>
<path d="M32.2245 47.5219C30.9786 47.5204 29.7841 47.0193 28.9031 46.1284C28.0221 45.2375 27.5265 44.0296 27.5251 42.7696C27.5251 42.4843 27.413 42.2107 27.2135 42.009C27.014 41.8072 26.7434 41.6939 26.4613 41.6939C26.1791 41.6939 25.9085 41.8072 25.709 42.009C25.5095 42.2107 25.3975 42.4843 25.3975 42.7696C25.4 44.4133 25.9815 46.0023 27.0376 47.2516C28.0938 48.501 29.5555 49.3291 31.1607 49.5874V52.2633C31.1607 52.5486 31.2727 52.8223 31.4722 53.024C31.6717 53.2258 31.9423 53.3391 32.2245 53.3391C32.5066 53.3391 32.7772 53.2258 32.9767 53.024C33.1762 52.8223 33.2883 52.5486 33.2883 52.2633V49.5874C34.8935 49.3291 36.3552 48.501 37.4113 47.2516C38.4674 46.0023 39.0489 44.4133 39.0515 42.7696C39.0515 40.9086 38.3441 39.3272 37.0622 38.3213C35.7803 37.3155 33.9425 36.9497 32.1075 37.3881C32.0581 37.3935 32.0092 37.4025 31.9612 37.415C30.7165 37.7404 29.5251 37.5522 28.6926 36.9013C27.9293 36.3043 27.5277 35.3549 27.5277 34.1554C27.5569 32.915 28.0647 31.7353 28.9426 30.8684C29.8205 30.0015 30.9988 29.5162 32.2258 29.5162C33.4528 29.5162 34.6311 30.0015 35.509 30.8684C36.3869 31.7353 36.8947 32.915 36.9239 34.1554C36.9239 34.4407 37.0359 34.7143 37.2355 34.9161C37.435 35.1178 37.7055 35.2312 37.9877 35.2312C38.2698 35.2312 38.5404 35.1178 38.7399 34.9161C38.9394 34.7143 39.0515 34.4407 39.0515 34.1554C39.0496 32.5113 38.4684 30.9217 37.4122 29.6717C36.356 28.4218 34.8939 27.5934 33.2883 27.335V24.8311C33.2883 24.5458 33.1762 24.2722 32.9767 24.0705C32.7772 23.8687 32.5066 23.7554 32.2245 23.7554C31.9423 23.7554 31.6717 23.8687 31.4722 24.0705C31.2727 24.2722 31.1607 24.5458 31.1607 24.8311V27.335C29.5555 27.5933 28.0938 28.4213 27.0376 29.6707C25.9815 30.9201 25.4 32.5091 25.3975 34.1527C25.3975 36.0138 26.1049 37.5952 27.3868 38.601C28.6687 39.6069 30.5064 39.9726 32.3415 39.5343C32.3908 39.5288 32.4397 39.5198 32.4878 39.5074C33.7324 39.1819 34.9239 39.3702 35.7563 40.021C36.5196 40.6181 36.9212 41.5675 36.9212 42.767C36.9205 44.0269 36.4256 45.2351 35.5451 46.1265C34.6646 47.0179 33.4704 47.5197 32.2245 47.5219Z" fill="#FA646A" stroke="#FA646A" stroke-width="0.5"/>
</svg>
