<svg width="72" height="72" viewBox="0 0 72 72" fill="none" xmlns="http://www.w3.org/2000/svg">
<path d="M43.7969 29.4985L33.2791 39.4328L28.2316 34.2396C27.6627 33.656 26.7437 33.656 26.1748 34.2104C25.5912 34.7793 25.5912 35.6983 26.1456 36.2673L32.1996 42.4817C32.4913 42.7735 32.8706 42.9194 33.2499 42.9194C33.6146 42.9194 33.9647 42.7881 34.2564 42.5255L45.8246 31.6137C46.4082 31.0594 46.4373 30.1404 45.883 29.5568C45.3141 28.9733 44.395 28.9442 43.7969 29.4985Z" fill="#FA646A" stroke="#FA646A" stroke-width="0.5"/>
<path d="M35.9896 14.2092C23.9692 14.2092 14.1953 23.9831 14.1953 36.0035C14.1953 48.024 23.9692 57.7978 35.9896 57.7978C48.01 57.7978 57.7839 48.024 57.7839 36.0035C57.7839 23.9831 48.01 14.2092 35.9896 14.2092ZM35.9896 54.8803C25.5739 54.8803 17.1129 46.4047 17.1129 36.0035C17.1129 25.6024 25.5739 17.1268 35.9896 17.1268C46.4054 17.1268 54.8664 25.5878 54.8664 36.0035C54.8664 46.4193 46.4054 54.8803 35.9896 54.8803Z" fill="#FA646A" stroke="#FA646A" stroke-width="0.5"/>
<path d="M65.9818 27.9803L66.4632 19.3297C66.4923 18.7462 66.186 18.2064 65.6608 17.9438L57.9584 14.0489L54.0635 6.34646C53.8009 5.83589 53.2611 5.51495 52.6776 5.54413L44.0124 6.01094L36.7914 1.2407C36.31 0.919767 35.6681 0.919767 35.1867 1.2407L27.9657 6.01094L19.3151 5.52954C18.7316 5.50036 18.1918 5.80671 17.9292 6.33187L14.0343 14.0343L6.33188 17.9293C5.8213 18.1918 5.50037 18.7316 5.52954 19.3151L6.01094 27.9657L1.2407 35.1867C0.919767 35.6681 0.919767 36.31 1.2407 36.7914L5.99635 44.027L5.51495 52.6776C5.48578 53.2611 5.79212 53.8009 6.31729 54.0635L14.0197 57.9584L17.9147 65.6608C18.1772 66.1714 18.717 66.4923 19.3005 66.4632L27.9511 65.9818L35.1721 70.752C35.4201 70.9125 35.6973 71 35.9745 71C36.2516 71 36.5288 70.9125 36.7768 70.752L43.9978 65.9818L52.6484 66.4632C53.232 66.4923 53.7717 66.186 54.0343 65.6608L57.9293 57.9584L65.6317 54.0635C66.1422 53.8009 66.4632 53.2611 66.434 52.6776L65.9526 44.027L70.7228 36.806C71.0438 36.3246 71.0438 35.6827 70.7228 35.2013L65.9818 27.9803ZM63.2684 42.8308C63.0934 43.0934 63.0058 43.3997 63.035 43.7206L63.4872 51.9045L56.2079 55.5806C55.9307 55.7265 55.6973 55.9453 55.566 56.2225L51.8899 63.5018L43.7061 63.0496C43.3997 63.035 43.0788 63.1225 42.8162 63.283L35.9891 67.7907L29.1619 63.283C28.9285 63.1225 28.6368 63.035 28.3596 63.035C28.3304 63.035 28.3012 63.035 28.2867 63.035L20.1028 63.4872L16.4267 56.2079C16.2808 55.9307 16.062 55.6973 15.7848 55.566L8.49088 51.9045L8.94311 43.7206C8.9577 43.4143 8.87017 43.0934 8.7097 42.8308L4.20204 36.0036L8.7097 29.1765C8.88476 28.9139 8.97228 28.6076 8.94311 28.2867L8.49088 20.1028L15.7702 16.4267C16.0474 16.2808 16.2808 16.062 16.4121 15.7848L20.0883 8.50547L28.2721 8.9577C28.5784 8.97228 28.8993 8.88476 29.1619 8.72429L35.9891 4.21663L42.8162 8.72429C43.0788 8.89934 43.3851 8.98687 43.7061 8.9577L51.8899 8.50547L55.566 15.7848C55.7119 16.062 55.9307 16.2954 56.2079 16.4267L63.4872 20.1028L63.035 28.2867C63.0204 28.593 63.108 28.9139 63.2684 29.1765L67.7761 36.0036L63.2684 42.8308Z" fill="#FA646A" stroke="#FA646A" stroke-width="0.5"/>
</svg>
