<svg width="64" height="71" viewBox="0 0 64 71" fill="none" xmlns="http://www.w3.org/2000/svg">
<path d="M50.8648 50.0442L44.3241 47.8642L41.976 43.1682C44.0916 41.015 45.5602 38.166 46.0551 35.1949L46.3483 33.4392H48.8528C49.9473 33.438 50.9967 33.0027 51.7706 32.2287C52.5445 31.4548 52.9798 30.4055 52.981 29.311V20.6402C52.981 9.25838 43.7209 -0.000976562 32.3399 -0.000976562C20.929 -0.000976562 11.6988 9.23229 11.6988 20.6402V29.311C11.6997 30.1642 11.9645 30.9962 12.4568 31.6929C12.9492 32.3897 13.645 32.9171 14.4489 33.2029V34.8143C14.4503 35.9087 14.8857 36.9579 15.6596 37.7318C16.4335 38.5057 17.4827 38.9411 18.5771 38.9425H19.7857C20.3807 40.238 21.1582 41.4417 22.0946 42.5167C22.2887 42.7408 22.492 42.9579 22.7007 43.1689L20.3573 47.8642L13.8166 50.0442C6.21163 52.5764 0.695312 60.5865 0.695312 69.0809C0.695516 69.4458 0.840638 69.7958 1.09878 70.0538C1.35691 70.3118 1.70694 70.4567 2.0719 70.4567H62.6133C62.9776 70.4567 63.3271 70.3123 63.5851 70.0551C63.8431 69.798 63.9887 69.449 63.9899 69.0847C63.9899 60.5865 58.4697 52.5802 50.8648 50.0442ZM50.2286 29.311C50.2274 29.6756 50.0821 30.0249 49.8244 30.2828C49.5667 30.5406 49.2174 30.6862 48.8528 30.6876H46.7534C47.1026 27.9781 47.3358 25.0945 47.4294 22.2546C47.4294 22.1779 47.4348 22.0966 47.4371 22.0175H50.2294L50.2286 29.311ZM15.8301 30.6876C15.4646 30.6876 15.114 30.5427 14.8551 30.2847C14.5962 30.0266 14.4501 29.6765 14.4489 29.311V22.0175H17.242C17.2466 22.161 17.252 22.3053 17.2573 22.4511V22.4656C17.354 25.228 17.5842 28.0364 17.9257 30.6868L15.8301 30.6876ZM18.5817 36.1916C18.2173 36.1902 17.8682 36.0448 17.6104 35.7871C17.3527 35.5294 17.2073 35.1803 17.2059 34.8158V33.4392H18.3339L18.627 35.1956C18.6833 35.5292 18.7513 35.8617 18.8311 36.1931L18.5817 36.1916ZM17.2082 19.2659H14.5018C15.1993 10.0426 22.8956 2.7522 32.3392 2.7522C41.7405 2.7522 49.4713 10.0418 50.1765 19.2659H47.4739C47.375 11.6655 41.1865 5.50461 33.5707 5.50461H31.1076C23.4926 5.50461 17.3034 11.6655 17.2044 19.2659H17.2082ZM31.1076 8.25702H33.5707C39.737 8.25702 44.7277 13.3007 44.7238 19.46C44.7238 19.8928 44.7238 20.2695 44.7131 20.611V20.6248L42.9935 20.38C38.2896 19.6982 33.9306 17.5187 30.5628 14.1647C30.4348 14.0363 30.2826 13.9345 30.1151 13.8651C29.9476 13.7957 29.7681 13.7601 29.5868 13.7603C27.7566 13.7651 25.9501 14.1732 24.2957 14.9557C22.6413 15.7382 21.1798 16.8758 20.0151 18.2875C20.5914 12.686 25.3281 8.25702 31.1076 8.25702ZM21.6802 36.1916C20.9896 33.9004 20.2031 27.1571 20.0289 22.8363L21.8805 20.367C22.7254 19.2469 23.8035 18.3238 25.0403 17.6613C26.277 16.9989 27.6429 16.613 29.0435 16.5304C32.7751 20.0709 37.5121 22.3683 42.6029 23.1064L44.6287 23.3956C44.4936 26.2701 44.2166 29.1506 43.8199 31.8063C43.6941 32.6588 43.5943 33.2075 43.3403 34.7406C42.6121 39.1144 39.3502 43.0646 35.0448 44.1411C33.2684 44.5835 31.4107 44.5835 29.6343 44.1411C26.9487 43.469 24.4809 41.609 22.8903 38.9425H25.6956C25.9809 39.7467 26.508 40.443 27.2047 40.9358C27.9013 41.4286 28.7334 41.6938 29.5868 41.6949H32.3392C33.4244 41.6801 34.4602 41.2386 35.2223 40.466C35.9845 39.6933 36.4119 38.6516 36.4119 37.5663C36.4119 36.481 35.9845 35.4393 35.2223 34.6666C34.4602 33.894 33.4244 33.4525 32.3392 33.4377H29.5868C28.7328 33.4375 27.8999 33.7022 27.2026 34.1951C26.5053 34.688 25.978 35.385 25.6933 36.1901L21.6802 36.1916ZM29.4717 46.9273C31.1555 47.2847 32.8914 47.324 34.5897 47.0432L32.1581 49.6145L29.4717 46.9273ZM30.2658 51.6149L25.9013 56.2304C24.6989 53.9287 23.6692 51.5408 22.8205 49.0866L24.4595 45.8085L30.2658 51.6149ZM39.9856 45.342L41.8579 49.0866C41.0082 51.5418 39.9771 53.9304 38.7732 56.2327L34.1017 51.5612L39.9856 45.342ZM28.2109 37.5682C28.2109 37.2032 28.3559 36.8532 28.6139 36.5951C28.8718 36.3369 29.2218 36.1918 29.5868 36.1916H32.3392C32.6985 36.2001 33.0403 36.3488 33.2915 36.606C33.5426 36.8632 33.6832 37.2084 33.6832 37.5678C33.6832 37.9273 33.5426 38.2725 33.2915 38.5297C33.0403 38.7868 32.6985 38.9355 32.3392 38.944H29.5868C29.2223 38.9426 28.8732 38.7972 28.6155 38.5395C28.3578 38.2818 28.2123 37.9327 28.2109 37.5682ZM3.49606 67.7035C4.04163 60.8866 8.57807 54.6904 14.6837 52.6547L20.477 50.7241C21.5387 53.6617 22.8478 56.5038 24.3904 59.2199L24.3981 59.2337C25.5329 61.2284 26.791 63.1505 28.1649 64.9887L29.8607 67.7035H3.49606ZM32.3392 66.4758L30.473 63.4832C30.4523 63.4494 30.43 63.4172 30.4063 63.3857C29.2917 61.8974 28.2567 60.3511 27.3055 58.7534L32.2164 53.5632L37.3874 58.7342C36.4339 60.3388 35.3952 61.8913 34.2759 63.385C34.2053 63.4732 34.3012 63.3297 32.3392 66.4758ZM34.8176 67.7035L36.5104 64.9864C37.895 63.1344 39.1618 61.1971 40.3033 59.1862L40.324 59.1493C41.85 56.4552 43.1465 53.6373 44.1997 50.7256L49.9923 52.6562C56.1002 54.6912 60.6375 60.8873 61.1792 67.7035H34.8176Z" fill="#FA646A"/>
<path d="M48.6072 54.4284C48.6072 54.6966 48.5277 54.9587 48.3787 55.1817C48.2297 55.4047 48.0179 55.5785 47.7701 55.6811C47.5223 55.7837 47.2496 55.8105 46.9866 55.7581C46.7235 55.7057 46.482 55.5765 46.2924 55.3868C46.1028 55.1971 45.9737 54.9555 45.9215 54.6924C45.8692 54.4294 45.8962 54.1567 45.9989 53.909C46.1017 53.6612 46.2756 53.4495 46.4987 53.3006C46.7217 53.1517 46.9839 53.0724 47.2521 53.0725C47.6116 53.0727 47.9563 53.2157 48.2104 53.4699C48.4645 53.7242 48.6072 54.0689 48.6072 54.4284ZM52.8429 55.9415C52.5574 55.7309 52.2006 55.6405 51.8492 55.6899C51.4979 55.7392 51.1798 55.9244 50.9634 56.2056C50.747 56.4868 50.6494 56.8416 50.6916 57.1939C50.7339 57.5463 50.9126 57.868 51.1893 58.09C52.478 59.0845 53.5259 60.3568 54.2548 61.8123C54.3335 61.9731 54.4433 62.1167 54.5777 62.2348C54.7122 62.3529 54.8688 62.4432 55.0383 62.5005C55.2079 62.5579 55.3871 62.581 55.5657 62.5687C55.7442 62.5564 55.9186 62.5089 56.0787 62.4289C56.2388 62.3488 56.3815 62.2379 56.4985 62.1025C56.6155 61.967 56.7046 61.8098 56.7605 61.6397C56.8164 61.4697 56.8381 61.2903 56.8244 61.1118C56.8106 60.9334 56.7616 60.7594 56.6803 60.6C55.7675 58.7785 54.4559 57.1862 52.8429 55.9415Z" fill="#FA646A"/>
</svg>
